{
  "asset": {
    "version": "2.0",
    "generator": "MyEngine test asset generator"
  },
  "scene": 0,
  "scenes": [
    {
      "nodes": [
        0,
        3
      ]
    }
  ],
  "nodes": [
    {
      "name": "Root",
      "translation": [
        0.0,
        0.0,
        0.0
      ],
      "children": [
        1
      ]
    },
    {
      "name": "Mid",
      "translation": [
        0.0,
        1.0,
        0.0
      ],
      "children": [
        2
      ]
    },
    {
      "name": "Tip",
      "translation": [
        0.0,
        1.0,
        0.0
      ]
    },
    {
      "name": "CharacterMesh",
      "mesh": 0,
      "skin": 0
    }
  ],
  "meshes": [
    {
      "name": "CharacterMesh",
      "primitives": [
        {
          "attributes": {
            "POSITION": 0,
            "NORMAL": 1,
            "JOINTS_0": 2,
            "WEIGHTS_0": 3
          },
          "indices": 4,
          "mode": 4
        }
      ]
    }
  ],
  "skins": [
    {
      "name": "CharacterSkeleton",
      "inverseBindMatrices": 5,
      "joints": [
        0,
        1,
        2
      ],
      "skeleton": 0
    }
  ],
  "animations": [
    {
      "name": "Swing",
      "samplers": [
        {
          "input": 6,
          "interpolation": "LINEAR",
          "output": 7
        },
        {
          "input": 6,
          "interpolation": "LINEAR",
          "output": 8
        },
        {
          "input": 6,
          "interpolation": "LINEAR",
          "output": 9
        }
      ],
      "channels": [
        {
          "sampler": 0,
          "target": {
            "node": 0,
            "path": "rotation"
          }
        },
        {
          "sampler": 1,
          "target": {
            "node": 1,
            "path": "rotation"
          }
        },
        {
          "sampler": 2,
          "target": {
            "node": 2,
            "path": "rotation"
          }
        }
      ]
    }
  ],
  "buffers": [
    {
      "uri": "character_animated.bin",
      "byteLength": 2036
    }
  ],
  "bufferViews": [
    {
      "buffer": 0,
      "byteOffset": 0,
      "byteLength": 288,
      "target": 34962
    },
    {
      "buffer": 0,
      "byteOffset": 288,
      "byteLength": 288,
      "target": 34962
    },
    {
      "buffer": 0,
      "byteOffset": 576,
      "byteLength": 192,
      "target": 34962
    },
    {
      "buffer": 0,
      "byteOffset": 768,
      "byteLength": 384,
      "target": 34962
    },
    {
      "buffer": 0,
      "byteOffset": 1152,
      "byteLength": 432,
      "target": 34963
    },
    {
      "buffer": 0,
      "byteOffset": 1584,
      "byteLength": 192
    },
    {
      "buffer": 0,
      "byteOffset": 1776,
      "byteLength": 20
    },
    {
      "buffer": 0,
      "byteOffset": 1796,
      "byteLength": 80
    },
    {
      "buffer": 0,
      "byteOffset": 1876,
      "byteLength": 80
    },
    {
      "buffer": 0,
      "byteOffset": 1956,
      "byteLength": 80
    }
  ],
  "accessors": [
    {
      "bufferView": 0,
      "componentType": 5126,
      "count": 24,
      "type": "VEC3",
      "min": [
        -0.4,
        0.0,
        -0.4
      ],
      "max": [
        0.4,
        3.0,
        0.4
      ]
    },
    {
      "bufferView": 1,
      "componentType": 5126,
      "count": 24,
      "type": "VEC3"
    },
    {
      "bufferView": 2,
      "componentType": 5123,
      "count": 24,
      "type": "VEC4"
    },
    {
      "bufferView": 3,
      "componentType": 5126,
      "count": 24,
      "type": "VEC4"
    },
    {
      "bufferView": 4,
      "componentType": 5125,
      "count": 108,
      "type": "SCALAR"
    },
    {
      "bufferView": 5,
      "componentType": 5126,
      "count": 3,
      "type": "MAT4"
    },
    {
      "bufferView": 6,
      "componentType": 5126,
      "count": 5,
      "type": "SCALAR",
      "min": [
        0.0
      ],
      "max": [
        2.0
      ]
    },
    {
      "bufferView": 7,
      "componentType": 5126,
      "count": 5,
      "type": "VEC4"
    },
    {
      "bufferView": 8,
      "componentType": 5126,
      "count": 5,
      "type": "VEC4"
    },
    {
      "bufferView": 9,
      "componentType": 5126,
      "count": 5,
      "type": "VEC4"
    }
  ]
}